# File created by Blade
# Date/Time:  Thu Sep 25 17:54:10 2014
# Frame Rate: 120.000 fps
#------------------------------------------------------
:FULLY-SPECIFIED
:DEGREES
2453
root 0.395620 32.534250 -6.551837 24.349952 0.976996 -0.420627
Spine -32.848211 -24.893785 14.281382
Head -11.749840 16.394497 -0.788902
LeftShoulder 9.334803 36.197974 50.247779
LeftArm 177.209141 -13.619057 -60.215702
LeftForeArm -0.902308 -0.000000 80.218064
LeftHand -13.622328 -0.000000 -11.105643
LeftHandThumb1 -26.253704 0.000000 33.147579
RightShoulder -0.727970 4.324492 -45.032035
RightArm 67.120158 -14.695033 108.207179
RightForeArm 41.184523 -0.000000 123.608441
RightHand 19.366351 -0.000000 -46.016039
RightHandThumb1 -24.326973 -0.000000 -32.862282
LeftUpLeg -19.149572 4.263683 -0.227047
LeftLeg -0.709556 -0.000000 0.000000
LeftFoot -5.665449 -2.046781 -1.778292
LeftToeBase 3.881040 -0.000000 -0.000000
RightUpLeg -19.292027 -7.777160 3.626727
RightLeg -0.965054 -0.000000 0.000000
RightFoot -7.934942 -0.593539 11.903723
RightToeBase 16.156757 -0.000000 -0.000000
2454
root 0.392801 32.534944 -6.555340 24.312950 0.932082 -0.422195
Spine -32.787146 -24.704861 14.183089
Head -11.845365 16.144155 -0.821552
LeftShoulder 9.393428 36.642410 50.196380
LeftArm 177.269934 -14.142269 -60.417569
LeftForeArm -1.040228 0.000000 80.317867
LeftHand -13.542103 -0.000000 -11.276562
LeftHandThumb1 -26.253704 0.000000 33.147579
RightShoulder -0.518797 3.710586 -45.062336
RightArm 67.865179 -15.189028 107.676042
RightForeArm 41.849629 -0.000000 122.811893
RightHand 19.421237 -0.000000 -45.941612
RightHandThumb1 -24.326973 -0.000000 -32.862282
LeftUpLeg -19.117999 4.257530 -0.217171
LeftLeg -0.699328 -0.000000 0.000000
LeftFoot -5.660557 -2.010307 -1.788683
LeftToeBase 3.818452 -0.000000 -0.000000
RightUpLeg -19.269100 -7.763406 3.619919
RightLeg -0.956406 -0.000000 0.000000
RightFoot -7.930251 -0.578055 11.883230
RightToeBase 16.226631 -0.000000 -0.000000
2455
root 0.391373 32.535820 -6.555747 24.218228 0.890851 -0.424468
Spine -32.662147 -24.536195 14.075090
Head -11.945789 15.892435 -0.831693
LeftShoulder 9.405420 37.345924 50.067402
LeftArm 177.576073 -14.765741 -60.601988
LeftForeArm -1.156263 -0.000000 80.289827
LeftHand -13.510749 -0.000000 -11.458384
LeftHandThumb1 -26.253704 0.000000 33.147579
RightShoulder -0.349674 3.550434 -45.144684
RightArm 68.153375 -15.582018 107.326099
RightForeArm 42.767426 -0.000000 121.957851
RightHand 19.698476 -0.000000 -45.888996
RightHandThumb1 -24.326973 -0.000000 -32.862282
LeftUpLeg -19.018998 4.267940 -0.212056
LeftLeg -0.700894 -0.000000 0.000000
LeftFoot -5.653950 -1.978375 -1.811050
LeftToeBase 3.845005 -0.000000 -0.000000
RightUpLeg -19.172272 -7.790308 3.615750
RightLeg -0.973853 -0.000000 0.000000
RightFoot -7.879808 -0.517968 11.863018
RightToeBase 16.116251 -0.000000 -0.000000
2456
root 0.388703 32.537250 -6.560309 24.199062 0.858815 -0.425027
Spine -32.619950 -24.366131 13.978991
Head -12.017062 15.810458 -0.816651
LeftShoulder 9.474519 38.500446 49.989803
LeftArm 178.262383 -15.621223 -60.874511
LeftForeArm -1.218428 -0.000000 80.190923
LeftHand -12.991006 -0.000000 -11.818135
LeftHandThumb1 -26.253704 0.000000 33.147579
RightShoulder -0.169470 3.381017 -45.182082
RightArm 68.481976 -15.937394 106.897851
RightForeArm 43.551289 -0.000000 121.152960
RightHand 19.781368 -0.000000 -45.928511
RightHandThumb1 -24.326973 -0.000000 -32.862282
LeftUpLeg -19.012180 4.255938 -0.202958
LeftLeg -0.682608 -0.000000 0.000000
LeftFoot -5.651834 -1.937213 -1.822211
LeftToeBase 3.861214 -0.000000 -0.000000
RightUpLeg -19.171791 -7.812560 3.626787
RightLeg -0.964243 -0.000000 0.000000
RightFoot -7.854926 -0.468515 11.851678
RightToeBase 16.144471 -0.000000 -0.000000
2457
root 0.386456 32.538553 -6.562974 24.124113 0.818969 -0.428544
Spine -32.512859 -24.210105 13.874076
Head -12.118824 15.638847 -0.810275
LeftShoulder 9.483058 39.365393 49.865312
LeftArm 178.690423 -16.365288 -61.139285
LeftForeArm -1.276855 -0.000000 80.126143
LeftHand -12.681372 -0.000000 -11.985219
LeftHandThumb1 -26.253704 0.000000 33.147579
RightShoulder 0.024558 3.077867 -45.202026
RightArm 68.976333 -16.330549 106.428795
RightForeArm 44.173332 -0.000000 120.303564
RightHand 19.781275 -0.000000 -45.924163
RightHandThumb1 -24.326973 -0.000000 -32.862282
LeftUpLeg -18.943367 4.268643 -0.195882
LeftLeg -0.669991 -0.000000 0.000000
LeftFoot -5.646564 -1.921117 -1.841493
LeftToeBase 3.841166 -0.000000 -0.000000
RightUpLeg -19.104208 -7.830047 3.626797
RightLeg -0.970737 -0.000000 0.000000
RightFoot -7.831236 -0.428449 11.838725
RightToeBase 16.157538 -0.000000 -0.000000
2458
root 0.384452 32.540022 -6.567135 24.067965 0.778983 -0.424375
Spine -32.427112 -24.052238 13.772843
Head -12.214351 15.456928 -0.805357
LeftShoulder 9.403552 39.587513 49.786584
LeftArm 178.489268 -16.662588 -61.330649
LeftForeArm -1.437701 -0.000000 80.298279
LeftHand -12.701561 -0.000000 -12.142975
LeftHandThumb1 -26.253704 0.000000 33.147579
RightShoulder 0.214793 2.805751 -45.251338
RightArm 69.465982 -16.708473 105.961299
RightForeArm 44.378723 0.000000 119.477815
RightHand 19.687041 -0.000000 -45.964620
RightHandThumb1 -24.326973 -0.000000 -32.862282
LeftUpLeg -18.896966 4.284209 -0.202206
LeftLeg -0.655465 -0.000000 0.000000
LeftFoot -5.631373 -1.899413 -1.847313
LeftToeBase 3.815481 -0.000000 -0.000000
RightUpLeg -19.062147 -7.846770 3.621938
RightLeg -0.968445 -0.000000 0.000000
RightFoot -7.808438 -0.383306 11.811003
RightToeBase 16.149096 -0.000000 -0.000000
2459
root 0.382588 32.541593 -6.571792 24.032547 0.752029 -0.429021
Spine -32.361192 -23.865092 13.681477
Head -12.304806 15.258130 -0.796735
LeftShoulder 9.373594 40.020132 49.681921
LeftArm 178.517042 -17.155492 -61.590798
LeftForeArm -1.627120 0.000000 80.382178
LeftHand -12.600298 -0.000000 -12.336697
LeftHandThumb1 -26.253704 0.000000 33.147579
RightShoulder 0.382772 2.477144 -45.289808
RightArm 70.074384 -17.111692 105.358638
RightForeArm 43.688925 -0.000000 118.551771
RightHand 19.517981 -0.000000 -46.480423
RightHandThumb1 -24.326973 -0.000000 -32.862282
LeftUpLeg -18.869891 4.282008 -0.193777
LeftLeg -0.650384 -0.000000 0.000000
LeftFoot -5.622327 -1.868326 -1.844267
LeftToeBase 3.838586 -0.000000 -0.000000
RightUpLeg -19.058553 -7.907056 3.648124
RightLeg -0.937388 -0.000000 0.000000
RightFoot -7.772331 -0.297668 11.774953
RightToeBase 16.098229 -0.000000 -0.000000
2460
root 0.380887 32.543286 -6.575168 23.951153 0.709631 -0.427838
Spine -32.245516 -23.726320 13.581993
Head -12.398888 15.127293 -0.794509
LeftShoulder 9.322604 40.963936 49.523123
LeftArm 178.957814 -17.943112 -61.931506
LeftForeArm -1.839503 -0.000000 80.352511
LeftHand -12.457867 -0.000000 -12.462089
LeftHandThumb1 -26.253704 0.000000 33.147579
RightShoulder 0.561461 2.264990 -45.318173
RightArm 70.573634 -17.471778 104.867752
RightForeArm 42.991312 -0.000000 117.601993
RightHand 19.522689 0.000000 -46.411710
RightHandThumb1 -24.326973 -0.000000 -32.862282
LeftUpLeg -18.793023 4.318501 -0.201948
LeftLeg -0.644807 -0.000000 0.000000
LeftFoot -5.607163 -1.863931 -1.857507
LeftToeBase 3.836710 -0.000000 -0.000000
RightUpLeg -18.983127 -7.893078 3.631215
RightLeg -0.949747 -0.000000 0.000000
RightFoot -7.743433 -0.291528 11.782618
RightToeBase 16.170580 -0.000000 -0.000000
2461
root 0.379511 32.543958 -6.581073 23.942341 0.652797 -0.422335
Spine -32.208179 -23.527347 13.498638
Head -12.496338 14.956667 -0.832883
LeftShoulder 9.354638 41.445381 49.494161
LeftArm 178.986086 -18.397252 -62.254964
LeftForeArm -1.970742 -0.000000 80.474372
LeftHand -12.455444 -0.000000 -12.610663
LeftHandThumb1 -26.253704 0.000000 33.147579
RightShoulder 0.679628 0.855973 -45.294318
RightArm 72.364570 -18.141835 103.920455
RightForeArm 41.993679 -0.000000 116.455020
RightHand 19.656173 -0.000000 -46.267550
RightHandThumb1 -24.326973 -0.000000 -32.862282
LeftUpLeg -18.791902 4.360752 -0.224692
LeftLeg -0.639906 -0.000000 0.000000
LeftFoot -5.596251 -1.864026 -1.848781
LeftToeBase 3.820092 -0.000000 -0.000000
RightUpLeg -18.987892 -7.859261 3.611853
RightLeg -0.951280 -0.000000 0.000000
RightFoot -7.733404 -0.279240 11.768579
RightToeBase 16.166641 -0.000000 -0.000000
2462
root 0.377584 32.545110 -6.587101 23.917523 0.614476 -0.429393
Spine -32.119942 -23.258118 13.360236
Head -12.620761 14.684334 -0.863400
LeftShoulder 9.416940 41.581472 49.524103
LeftArm 178.753675 -18.684072 -62.544026
LeftForeArm -2.181560 -0.000000 80.643634
LeftHand -12.516307 -0.000000 -12.762428
LeftHandThumb1 -26.253704 0.000000 33.147579
RightShoulder 0.740725 1.530906 -45.340168
RightArm 71.918708 -18.237698 103.712519
RightForeArm 40.863481 -0.000000 115.359129
RightHand 19.759750 -0.000000 -46.125987
RightHandThumb1 -24.326973 -0.000000 -32.862282
LeftUpLeg -18.772799 4.397531 -0.227455
LeftLeg -0.644364 -0.000000 0.000000
LeftFoot -5.583253 -1.865250 -1.861618
LeftToeBase 3.830674 -0.000000 -0.000000
RightUpLeg -18.980047 -7.842011 3.609644
RightLeg -0.942393 -0.000000 0.000000
RightFoot -7.709490 -0.268976 11.765675
RightToeBase 16.175247 -0.000000 -0.000000
2463
root 0.375836 32.546545 -6.590695 23.837221 0.561847 -0.427090
Spine -32.035995 -23.135511 13.319059
Head -12.697690 14.593836 -0.963026
LeftShoulder 9.322588 42.290578 49.274738
LeftArm 178.876711 -19.359601 -62.917058
LeftForeArm -2.418301 -0.000000 80.716432
LeftHand -12.353882 -0.000000 -12.732699
LeftHandThumb1 -26.253704 0.000000 33.147579
RightShoulder 0.949216 2.283691 -45.479257
RightArm 71.487614 -18.322989 103.564462
RightForeArm 39.797210 -0.000000 114.190741
RightHand 20.060026 -0.000000 -45.717924
RightHandThumb1 -24.326973 -0.000000 -32.862282
LeftUpLeg -18.680047 4.441431 -0.240896
LeftLeg -0.672242 -0.000000 0.000000
LeftFoot -5.551882 -1.853638 -1.874095
LeftToeBase 3.832007 -0.000000 -0.000000
RightUpLeg -18.899347 -7.811967 3.583974
RightLeg -0.965001 -0.000000 0.000000
RightFoot -7.664627 -0.252016 11.784379
RightToeBase 16.136192 -0.000000 -0.000000
2464
root 0.373548 32.547398 -6.598106 23.843819 0.542622 -0.425480
Spine -32.038846 -23.009464 13.292749
Head -12.758140 14.464025 -0.988496
LeftShoulder 9.185805 42.734177 49.158833
LeftArm 178.770204 -19.728671 -63.251874
LeftForeArm -2.582907 -0.000000 80.875746
LeftHand -12.357260 0.000000 -12.786246
LeftHandThumb1 -26.253704 0.000000 33.147579
RightShoulder 1.061213 1.367679 -45.467765
RightArm 72.898343 -18.821301 102.657254
RightForeArm 38.984017 0.000000 112.844115
RightHand 20.333743 -0.000000 -45.608392
RightHandThumb1 -24.326973 -0.000000 -32.862282
LeftUpLeg -18.702530 4.481850 -0.255247
LeftLeg -0.665828 -0.000000 0.000000
LeftFoot -5.535036 -1.867994 -1.862299
LeftToeBase 3.789358 -0.000000 -0.000000
RightUpLeg -18.899573 -7.792715 3.577044
RightLeg -1.005713 -0.000000 0.000000
RightFoot -7.627012 -0.241978 11.775568
RightToeBase 16.128123 -0.000000 -0.000000
